<svg width="30" height="30" viewBox="0 0 30 30" fill="none" xmlns="http://www.w3.org/2000/svg">
<path fill-rule="evenodd" clip-rule="evenodd" d="M25.2293 6.69641H7.96355L6.48832 4.05216C6.32274 3.75535 6.00949 3.57141 5.66962 3.57141H3.79462C3.27685 3.57141 2.85712 3.99114 2.85712 4.50891C2.85712 5.02668 3.27685 5.44641 3.79462 5.44641H5.11912L6.57498 8.05597L9.93257 15.485L9.93602 15.4926L10.2317 16.1469L6.8607 19.7427C6.61831 20.0013 6.54243 20.3744 6.6646 20.7071C6.78676 21.0398 7.08608 21.2751 7.43819 21.3154L10.5109 21.6665C14.3542 22.1058 18.2351 22.1058 22.0784 21.6665L25.1511 21.3154C25.6655 21.2566 26.0349 20.7919 25.9761 20.2775C25.9173 19.763 25.4526 19.3937 24.9382 19.4525L21.8655 19.8036C18.1636 20.2267 14.4256 20.2267 10.7238 19.8036L9.50436 19.6643L11.9786 17.0251C12.0025 16.9996 12.0247 16.9731 12.0453 16.9457L12.9863 17.0682C14.3049 17.2397 15.6379 17.2734 16.9635 17.1685C20.0554 16.924 22.9209 15.4528 24.9215 13.0828L25.644 12.2267C25.6683 12.198 25.6908 12.1678 25.7115 12.1363L27.0582 10.084C28.0127 8.62932 26.9692 6.69641 25.2293 6.69641ZM12.115 15.064C11.9082 15.0371 11.7299 14.9057 11.6428 14.7165L11.6412 14.7128L8.86554 8.57141H25.2293C25.4778 8.57141 25.6269 8.84754 25.4906 9.05536L24.1748 11.0604L23.4887 11.8733C21.8111 13.8606 19.4083 15.0943 16.8157 15.2994C15.62 15.3939 14.4176 15.3636 13.2282 15.2088L12.115 15.064Z" fill="#717171"/>
<path d="M9.41962 23.2589C8.38408 23.2589 7.54462 24.0984 7.54462 25.1339C7.54462 26.1694 8.38408 27.0089 9.41962 27.0089C10.4552 27.0089 11.2946 26.1694 11.2946 25.1339C11.2946 24.0984 10.4552 23.2589 9.41962 23.2589Z" fill="#717171"/>
<path d="M21.2946 25.1339C21.2946 24.0984 22.1341 23.2589 23.1696 23.2589C24.2052 23.2589 25.0446 24.0984 25.0446 25.1339C25.0446 26.1694 24.2052 27.0089 23.1696 27.0089C22.1341 27.0089 21.2946 26.1694 21.2946 25.1339Z" fill="#717171"/>
<path fill-rule="evenodd" clip-rule="evenodd" d="M25.2293 6.69641H7.96355L6.48832 4.05216C6.32274 3.75535 6.00949 3.57141 5.66962 3.57141H3.79462C3.27685 3.57141 2.85712 3.99114 2.85712 4.50891C2.85712 5.02668 3.27685 5.44641 3.79462 5.44641H5.11912L6.57498 8.05597L9.93257 15.485L9.93602 15.4926L10.2317 16.1469L6.8607 19.7427C6.61831 20.0013 6.54243 20.3744 6.6646 20.7071C6.78676 21.0398 7.08608 21.2751 7.43819 21.3154L10.5109 21.6665C14.3542 22.1058 18.2351 22.1058 22.0784 21.6665L25.1511 21.3154C25.6655 21.2566 26.0349 20.7919 25.9761 20.2775C25.9173 19.763 25.4526 19.3937 24.9382 19.4525L21.8655 19.8036C18.1636 20.2267 14.4256 20.2267 10.7238 19.8036L9.50436 19.6643L11.9786 17.0251C12.0025 16.9996 12.0247 16.9731 12.0453 16.9457L12.9863 17.0682C14.3049 17.2397 15.6379 17.2734 16.9635 17.1685C20.0554 16.924 22.9209 15.4528 24.9215 13.0828L25.644 12.2267C25.6683 12.198 25.6908 12.1678 25.7115 12.1363L27.0582 10.084C28.0127 8.62932 26.9692 6.69641 25.2293 6.69641ZM12.115 15.064C11.9082 15.0371 11.7299 14.9057 11.6428 14.7165L11.6412 14.7128L8.86554 8.57141H25.2293C25.4778 8.57141 25.6269 8.84754 25.4906 9.05536L24.1748 11.0604L23.4887 11.8733C21.8111 13.8606 19.4083 15.0943 16.8157 15.2994C15.62 15.3939 14.4176 15.3636 13.2282 15.2088L12.115 15.064Z" stroke="#717171" stroke-linecap="round" stroke-linejoin="round"/>
<path d="M9.41962 23.2589C8.38408 23.2589 7.54462 24.0984 7.54462 25.1339C7.54462 26.1694 8.38408 27.0089 9.41962 27.0089C10.4552 27.0089 11.2946 26.1694 11.2946 25.1339C11.2946 24.0984 10.4552 23.2589 9.41962 23.2589Z" stroke="#717171" stroke-linecap="round" stroke-linejoin="round"/>
<path d="M21.2946 25.1339C21.2946 24.0984 22.1341 23.2589 23.1696 23.2589C24.2052 23.2589 25.0446 24.0984 25.0446 25.1339C25.0446 26.1694 24.2052 27.0089 23.1696 27.0089C22.1341 27.0089 21.2946 26.1694 21.2946 25.1339Z" stroke="#717171" stroke-linecap="round" stroke-linejoin="round"/>
</svg>
