<svg width="40" height="40" viewBox="0 0 40 40" fill="none" xmlns="http://www.w3.org/2000/svg">
<g clip-path="url(#clip0_405_1069)">
<path d="M20 40C31.0457 40 40 31.0457 40 20C40 8.95431 31.0457 0 20 0C8.95431 0 0 8.95431 0 20C0 31.0457 8.95431 40 20 40Z" fill="#38373F"/>
<path d="M22.3013 27.4598C22.3013 29.0595 22.5134 30.3839 22.9375 31.433C23.3616 32.4746 23.9085 33.241 24.5781 33.7321C25.2552 34.2231 25.9918 34.4352 26.7879 34.3682C27.6808 34.3013 28.5141 33.8772 29.2879 33.0959C30.0692 32.3073 30.7277 31.1502 31.2634 29.625V33.7433C30.6012 34.3236 29.8088 34.7589 28.8862 35.049C27.971 35.3318 27.0298 35.4843 26.0625 35.5066C25.0134 35.529 23.9717 35.369 22.9375 35.0267C21.9107 34.6845 20.9918 34.1376 20.1808 33.3861C19.4739 32.7239 18.9085 31.9054 18.4844 30.9307C18.0677 29.9561 17.8594 28.8325 17.8594 27.5602C17.8594 25.8415 18.1867 24.3831 18.8415 23.1852C19.5037 21.9873 20.4375 21.0833 21.6429 20.4731C22.8482 19.8556 24.2768 19.5505 25.9286 19.558C26.747 19.558 27.5394 19.6212 28.3058 19.7477C29.0722 19.8667 29.7046 20.116 30.2031 20.4955C30.7091 20.8675 30.9695 21.4181 30.9844 22.1473C30.9472 22.8987 30.6012 23.4047 29.9464 23.6651C29.2991 23.9255 28.5551 23.9665 27.7143 23.7879C28.1235 23.4754 28.3467 23.0438 28.3839 22.4933C28.4286 21.9352 28.2761 21.4293 27.9263 20.9754C27.5766 20.5141 27.0186 20.2797 26.2522 20.2723C25.3817 20.302 24.6823 20.555 24.154 21.0312C23.6332 21.4999 23.2389 22.1026 22.971 22.8393C22.7031 23.5758 22.5246 24.3571 22.4353 25.183C22.346 26.0014 22.3013 26.7603 22.3013 27.4598Z" fill="white"/>
<path d="M19.3084 32.9104L19.2016 32.7764L20.5941 31.5175C21.2193 30.8628 21.5587 30.2824 21.6124 29.7764C21.6656 29.2646 21.5347 28.8419 21.2193 28.5086C20.785 28.0741 20.273 27.9223 19.6833 28.0532C19.1004 28.1842 19.0297 28.3326 18.6189 28.8862C18.9046 29.1719 18.9633 29.1366 19.3084 29.4283C19.6599 29.714 19.865 30.086 19.9244 30.5443C19.9844 31.0027 19.7816 31.4551 19.3176 31.9015C19.1627 32.0443 19.005 32.1872 18.8444 32.33L16.353 29.1515L15.3976 27.9193C15.7964 27.705 16.1867 27.458 16.5673 27.1783C16.9541 26.8985 17.2787 26.5771 17.5404 26.214C17.7964 25.8509 17.9244 25.4342 17.9244 24.964C17.9244 24.5116 17.8027 24.086 17.5587 23.6872C16.9393 22.8003 16.0644 22.3449 14.9336 22.3211C14.1776 22.2854 13.4484 22.3985 12.7461 22.6604C12.1687 22.8687 11.7312 23.2199 11.4336 23.714C11.13 24.2616 11.002 24.8182 11.0496 25.3836C11.0973 25.9431 11.252 26.4848 11.5139 27.0086C11.7818 27.5265 12.0853 27.9997 12.4247 28.4283C11.4306 28.8271 10.7163 29.3806 10.2818 30.089C9.85323 30.7914 9.68951 31.5265 9.79071 32.2943C9.96929 33.461 10.4901 34.3003 11.3532 34.8122C12.2163 35.3182 13.2133 35.5354 14.3443 35.464C15.481 35.3926 16.5376 35.0682 17.5141 34.4907C17.7879 34.6872 18.0764 34.8152 18.3799 34.8747C18.6896 34.9283 19.0199 34.9551 19.3713 34.9551H21.9513C21.3267 34.7705 20.8204 34.5027 20.4336 34.1515C20.0467 33.8003 19.6719 33.3866 19.3084 32.9104ZM14.9336 27.33L13.7818 25.8479C13.502 25.4907 13.3145 25.0949 13.2193 24.6604C13.136 24.2914 13.1806 23.9402 13.3532 23.6068C13.5199 23.339 13.7491 23.1574 14.0407 23.0622C14.3324 22.967 14.63 22.9193 14.9336 22.9193C15.5467 22.9193 16.0616 23.1039 16.4781 23.4729C16.889 23.8419 17.0941 24.3182 17.0941 24.9015C17.0941 25.4074 16.9096 25.8449 16.5404 26.214C16.1656 26.5771 15.7581 26.8776 15.3176 27.1158C15.1987 27.1931 15.0707 27.2646 14.9336 27.33ZM16.8621 33.9997C16.225 34.4699 15.5227 34.6187 14.7553 34.4461C13.9872 34.2735 13.3235 33.8568 12.7639 33.1961C12.2759 32.589 12.008 31.8955 11.9604 31.1158C11.9127 30.33 12.2282 29.6396 12.9068 29.0443C13.5259 29.7646 14.1092 30.5056 14.657 31.2675C15.3233 32.2259 16.0587 33.1366 16.8621 33.9997Z" fill="white"/>
<path fill-rule="evenodd" clip-rule="evenodd" d="M27.7207 19.2751C27.6376 19.2837 27.5501 19.288 27.4582 19.288H27.7607C27.7473 19.2837 27.734 19.2793 27.7207 19.2751ZM20.5876 14.8683C19.7469 14.1764 18.043 13.5848 15.476 13.0937L17.8979 5.86164L20.5876 14.8683ZM22.697 3.89737C22.9128 3.59974 23.1918 3.45093 23.5341 3.45093H19.6055H15.6769C16.0415 3.45093 16.3205 3.61834 16.514 3.95314C16.7149 4.288 16.8339 4.68977 16.8711 5.15852C16.9083 5.62726 16.8637 6.07741 16.7372 6.50895L14.5609 13.0045C12.79 12.8854 11.3093 13.2053 10.1189 13.9643C8.921 14.7158 8.05043 15.6979 7.50729 16.9107C6.95672 18.1161 6.7558 19.3438 6.9046 20.5938C6.98643 21.2858 7.18734 21.9331 7.50729 22.5358C7.8198 23.1459 8.26249 23.6407 8.8354 24.0201C9.40832 24.407 10.1301 24.6004 11.0006 24.6004C11.8116 24.6004 12.4589 24.4256 12.9425 24.0759C13.0981 23.5731 13.4086 23.2386 13.8609 22.7513C13.9909 22.6113 14.1326 22.4586 14.2857 22.2858C13.5471 22.2858 12.5714 22.5715 12.5714 22.5715C12.5714 22.5715 11.7143 22.8572 10.8571 22C10.1451 21.288 10.0245 20.9703 9.91232 20.6745C9.88946 20.6142 9.86695 20.5549 9.83986 20.4933C9.54226 19.4888 9.52363 18.4695 9.78409 17.4353C10.0445 16.3936 10.5579 15.5268 11.3243 14.8348C12.0906 14.1354 13.0802 13.7895 14.293 13.7969L13.2551 16.8884C13.0393 17.4985 12.7417 18.0305 12.3622 18.4844C11.9827 18.9383 11.6033 19.2099 11.2238 19.2991H13.6903H14.9292C14.5199 19.1577 14.2521 18.849 14.1256 18.3728C14.0065 17.8966 14.04 17.3683 14.226 16.788L15.2193 13.8527C16.0378 13.9346 16.8711 14.1243 17.7193 14.4219C18.575 14.7195 19.3302 15.1101 19.9849 15.5937C20.6397 16.0774 21.0787 16.6317 21.3019 17.2567C21.3656 17.4382 21.4387 17.7261 21.5231 18.0589C21.764 19.0086 22.0976 20.3235 22.5714 20.5715C23.259 20.7433 23.6854 20.5016 24.0731 20.2816C24.3299 20.136 24.5696 20 24.8571 20L28.5743 20.2857H29.7143C29.7143 20.2857 29.7143 20 27.7617 19.4576C26.8912 19.2157 26.5714 18.5715 26.5714 18.5715C26.5714 18.5715 26.0475 17.7433 25.4285 16.2857C24.8096 14.8282 22.2841 6.26341 22.2841 6.26341C22.2023 5.84672 22.1948 5.42263 22.2617 4.99109C22.3361 4.55954 22.4812 4.19497 22.697 3.89737Z" fill="white"/>
</g>
<defs>
<clipPath id="clip0_405_1069">
<rect width="40" height="40" fill="white"/>
</clipPath>
</defs>
</svg>
