<svg width="238" height="39" viewBox="0 0 238 39" fill="none" xmlns="http://www.w3.org/2000/svg">
<g clip-path="url(#clip0_405_1074)">
<path d="M136.027 14.0547C136.027 16.8542 136.398 19.1719 137.141 21.0078C137.883 22.8307 138.84 24.1719 140.012 25.0312C141.197 25.8906 142.486 26.2617 143.879 26.1445C145.441 26.0273 146.9 25.2852 148.254 23.918C149.621 22.5378 150.773 20.513 151.711 17.8438V25.0508C150.552 26.0664 149.165 26.8281 147.551 27.3359C145.949 27.8307 144.302 28.0977 142.609 28.1367C140.773 28.1758 138.951 27.8958 137.141 27.2969C135.344 26.6979 133.736 25.7409 132.316 24.4258C131.079 23.2669 130.09 21.8346 129.348 20.1289C128.618 18.4232 128.254 16.457 128.254 14.2305C128.254 11.2227 128.827 8.67056 129.973 6.57421C131.132 4.47785 132.766 2.89582 134.875 1.82811C136.984 0.747385 139.484 0.213531 142.375 0.226551C143.807 0.226551 145.194 0.337229 146.535 0.558583C147.876 0.766916 148.983 1.20311 149.855 1.86718C150.741 2.51822 151.197 3.48176 151.223 4.7578C151.158 6.07291 150.552 6.95832 149.406 7.41405C148.273 7.86978 146.971 7.9414 145.5 7.6289C146.216 7.08202 146.607 6.32681 146.672 5.36327C146.75 4.38671 146.483 3.50129 145.871 2.70702C145.259 1.89973 144.283 1.48957 142.941 1.47655C141.418 1.52864 140.194 1.97134 139.269 2.80468C138.358 3.62499 137.668 4.67968 137.199 5.96874C136.73 7.2578 136.418 8.62499 136.262 10.0703C136.105 11.5026 136.027 12.8307 136.027 14.0547ZM152.621 11.3594L163.324 9.34765V11.4961C164.822 10.0638 166.384 9.36067 168.012 9.38671C169.574 9.37369 170.922 9.77082 172.055 10.5781C173.187 11.3724 173.793 12.4271 173.871 13.7422C173.871 14.7969 173.37 15.6497 172.367 16.3008C171.378 16.9518 169.965 17.1016 168.129 16.75C168.702 16.138 169.066 15.3633 169.223 14.4258C169.392 13.4883 169.327 12.6484 169.027 11.9062C168.728 11.1641 168.168 10.7799 167.348 10.7539C166.436 10.806 165.681 11.2682 165.082 12.1406C164.496 13 164.053 14.0612 163.754 15.3242C163.467 16.5742 163.324 17.7721 163.324 18.918C163.324 19.5169 163.324 19.9922 163.324 20.3438C163.324 20.6953 163.324 21.0469 163.324 21.3984C163.324 21.75 163.324 22.2057 163.324 22.7656C163.324 24.25 163.663 25.4935 164.34 26.4961C165.03 27.4857 166.039 27.9805 167.367 27.9805H153.266C154.151 27.9805 154.802 27.7526 155.219 27.2969C155.648 26.8411 155.928 26.2227 156.059 25.4414C156.189 24.6471 156.254 23.7552 156.254 22.7656V16.75C156.254 15.7604 156.13 14.8555 155.883 14.0352C155.648 13.2148 155.264 12.5638 154.73 12.082C154.21 11.6003 153.506 11.3594 152.621 11.3594ZM181.363 9.36718C181.676 9.36718 181.904 9.36718 182.047 9.36718C182.151 9.35416 182.262 9.34765 182.379 9.34765C182.509 9.34765 182.685 9.35416 182.906 9.36718C184.404 9.3802 185.784 9.60806 187.047 10.0508C188.31 10.4935 189.332 11.2227 190.113 12.2383C190.908 13.2539 191.305 14.6602 191.305 16.457C191.305 18.8268 191.305 21.1966 191.305 23.5664C191.305 24.4128 191.337 25.168 191.402 25.832C191.481 26.4961 191.702 27.0234 192.066 27.4141C192.431 27.7917 193.056 27.9805 193.941 27.9805C192.014 27.9805 190.243 27.9805 188.629 27.9805C187.848 27.9805 187.118 27.8763 186.441 27.668C185.777 27.4596 185.237 27.1081 184.82 26.6133C184.417 26.1055 184.215 25.4089 184.215 24.5234C183.915 25.0703 183.525 25.6107 183.043 26.1445C182.574 26.6654 182.001 27.1016 181.324 27.4531C180.66 27.8047 179.872 27.9805 178.961 27.9805C177.724 27.9805 176.728 27.7786 175.973 27.375C175.217 26.9583 174.664 26.431 174.312 25.793C173.961 25.1549 173.779 24.4779 173.766 23.7617C173.753 22.8112 174.052 21.8867 174.664 20.9883C175.276 20.0768 176.279 19.276 177.672 18.5859C178.336 18.2734 179.019 17.987 179.723 17.7266C180.934 17.3229 181.975 16.8151 182.848 16.2031C183.72 15.5781 184.176 14.5885 184.215 13.2344C184.176 12.2708 183.896 11.5677 183.375 11.125C182.854 10.6823 182.268 10.4609 181.617 10.4609C180.602 10.513 179.879 10.9427 179.449 11.75C179.033 12.5573 178.863 13.4557 178.941 14.4453C179.033 15.4219 179.332 16.1901 179.84 16.75C178.199 17.0625 176.839 16.8737 175.758 16.1836C174.677 15.4805 174.137 14.6211 174.137 13.6055C174.137 12.9154 174.358 12.2448 174.801 11.5938C175.257 10.9427 176.012 10.4089 177.066 9.99218C178.134 9.57551 179.566 9.36718 181.363 9.36718ZM184.215 16.8867C183.824 17.4596 183.381 18.0195 182.887 18.5664C182.275 19.2174 181.728 19.9271 181.246 20.6953C180.777 21.4505 180.556 22.3555 180.582 23.4102C180.621 23.9831 180.823 24.3672 181.188 24.5625C181.552 24.7578 181.969 24.7513 182.438 24.543C182.906 24.3216 183.316 23.8854 183.668 23.2344C184.033 22.5703 184.215 21.6719 184.215 20.5391V16.8867ZM196.863 10.793H193.914V9.34765H196.863C196.967 6.70442 197.905 4.52343 199.676 2.80468C201.447 1.08593 203.621 0.226551 206.199 0.226551C207.931 0.226551 209.389 0.447906 210.574 0.890614C211.772 1.33332 212.677 1.89322 213.289 2.5703C213.914 3.23437 214.233 3.91796 214.246 4.62108C214.246 5.67577 213.745 6.52864 212.742 7.17968C211.753 7.83072 210.346 7.98046 208.523 7.6289C209.031 7.069 209.285 6.31379 209.285 5.36327C209.285 4.41275 209.044 3.54035 208.562 2.74608C208.081 1.93879 207.391 1.47655 206.492 1.35937C205.607 1.3203 204.975 1.69791 204.598 2.49218C204.233 3.28645 204.018 4.24348 203.953 5.36327C203.901 6.48306 203.888 7.51171 203.914 8.44921C203.927 8.78775 203.934 9.08723 203.934 9.34765H208.523V10.793H203.934V22.7656C203.934 23.7552 204.018 24.6471 204.188 25.4414C204.37 26.2227 204.689 26.8411 205.145 27.2969C205.613 27.7526 206.29 27.9805 207.176 27.9805H192.723C194.051 27.9805 195.073 27.4857 195.789 26.4961C196.505 25.4935 196.863 24.25 196.863 22.7656V10.793Z" fill="#38373F"/>
<path fill-rule="evenodd" clip-rule="evenodd" d="M212.609 8.84766C211.539 9.3772 210.584 9.36523 209.518 9.35205C209.349 9.34985 209.176 9.34766 209 9.34766C209.768 9.34766 210.309 9.53662 210.621 9.91406C210.934 10.2917 211.116 10.7996 211.168 11.4375C211.233 12.0757 211.246 12.8047 211.207 13.625V14.7578V22.7656C211.207 23.7554 211.448 24.6472 211.93 25.4414C212.411 26.2229 213.017 26.8411 213.746 27.2969C214.488 27.7527 215.237 27.9805 215.992 27.9805H221.52C220.634 27.9805 219.26 27.5964 218.791 27.1406C218.335 26.6848 217.682 26.2815 217.5 25.5C217.331 24.7058 217.207 23.9897 217.207 23V11L221.715 10.793V9.34766H217.207V4.5V0C217.207 0.886963 217.152 1.92651 216.909 2.86426C216.505 5.86328 214.793 8.23828 212.609 8.84766ZM223.426 24.6211C222.085 23.1499 221.238 21.6199 220.887 20.0312V27.1992C221.368 26.8867 222 26.8672 222.781 27.1406C222.885 27.1797 222.99 27.2124 223.094 27.2383C224.07 27.5508 224.975 27.8047 225.809 28C226.655 28.2085 227.632 28.3518 228.738 28.4297C229.585 28.4949 230.49 28.469 231.453 28.3518C232.417 28.2476 233.322 28.0132 234.168 27.6484C235.027 27.2839 235.73 26.7695 236.277 26.1055C236.837 25.4414 237.117 24.5886 237.117 23.5469C237.117 22.7786 236.935 22.0886 236.57 21.4768C236.219 20.8647 235.763 20.3113 235.203 19.8164C234.656 19.3086 234.064 18.8464 233.426 18.4297L228.777 15.2854C227.944 14.6733 227.449 13.9832 227.293 13.2148C227.15 12.4336 227.306 11.7695 227.762 11.2229C228.217 10.6628 228.927 10.4155 229.891 10.4805C230.789 10.5979 231.434 11.0015 231.824 11.6914C232.215 12.3816 232.371 13.1499 232.293 13.9961C232.215 14.8425 231.915 15.5457 231.395 16.1055C233.23 16.457 234.643 16.3398 235.633 15.7539C236.622 15.155 237.117 14.3281 237.117 13.2734C237.143 12.2058 236.583 11.2944 235.437 10.5393C234.292 9.78394 232.345 9.38672 229.598 9.34766C227.293 9.30859 225.405 9.55615 223.934 10.0898C222.514 10.6628 221.518 11.5222 220.945 12.668C220.372 13.8008 220.249 14.9858 220.574 16.2229C220.913 17.4468 221.727 18.4949 223.016 19.3672L227.605 22.2773C228.595 22.9155 229.259 23.625 229.598 24.4062C229.949 25.1875 229.962 25.8518 229.637 26.3984C229.311 26.9453 228.621 27.1863 227.566 27.1211C226.16 26.9128 224.78 26.0796 223.426 24.6211Z" fill="#38373F"/>
<path fill-rule="evenodd" clip-rule="evenodd" d="M61.6085 9.84766C60.5395 10.3772 59.5837 10.3652 58.5182 10.3521C58.3485 10.3499 58.1761 10.3477 58 10.3477C58.7682 10.3477 59.3086 10.5366 59.6211 10.9141C59.9336 11.2917 60.1159 11.7996 60.1679 12.4375C60.233 13.0757 60.2461 13.8047 60.207 14.625V15.7578V23.7656C60.207 24.7554 60.4479 25.6472 60.9297 26.4414C61.4114 27.2229 62.0169 27.8411 62.7461 28.2969C63.4882 28.7527 64.2369 28.9805 64.9922 28.9805H70.5195C69.6341 28.9805 68.2597 28.5964 67.7909 28.1406C67.3352 27.6848 66.6823 27.2815 66.5 26.5C66.3307 25.7058 66.207 24.9897 66.207 24V12L70.7148 11.793V10.3477H66.207V5.5V1C66.207 1.88696 66.1522 2.92651 65.9092 3.86426C65.5051 6.86328 63.7926 9.23828 61.6085 9.84766ZM72.4258 25.6211C71.0846 24.1499 70.2382 22.6199 69.8867 21.0312V28.1992C70.3685 27.8867 71 27.8672 71.7812 28.1406C71.8854 28.1797 71.9896 28.2124 72.0937 28.2383C73.0703 28.5508 73.9752 28.8047 74.8086 29C75.6549 29.2085 76.6315 29.3518 77.738 29.4297C78.585 29.4949 79.49 29.469 80.453 29.3518C81.417 29.2476 82.322 29.0132 83.168 28.6484C84.027 28.2839 84.73 27.7695 85.277 27.1055C85.837 26.4414 86.117 25.5886 86.117 24.5469C86.117 23.7786 85.935 23.0886 85.57 22.4768C85.219 21.8647 84.763 21.3113 84.203 20.8164C83.656 20.3086 83.064 19.8464 82.426 19.4297L77.777 16.2854C76.944 15.6733 76.4492 14.9832 76.2929 14.2148C76.1497 13.4336 76.306 12.7695 76.762 12.2229C77.217 11.6628 77.927 11.4155 78.891 11.4805C79.789 11.5979 80.434 12.0015 80.824 12.6914C81.215 13.3816 81.371 14.1499 81.293 14.9961C81.215 15.8425 80.915 16.5457 80.395 17.1055C82.23 17.457 83.643 17.3398 84.633 16.7539C85.622 16.155 86.117 15.3281 86.117 14.2734C86.143 13.2058 85.583 12.2944 84.437 11.5393C83.292 10.7839 81.345 10.3867 78.598 10.3477C76.2929 10.3086 74.4049 10.5562 72.9336 11.0898C71.5143 11.6628 70.5182 12.5222 69.9453 13.668C69.3724 14.8008 69.2487 15.9858 69.5742 17.2229C69.9127 18.4468 70.7265 19.4949 72.0156 20.3672L76.6054 23.2773C77.595 23.9155 78.259 24.625 78.598 25.4062C78.949 26.1875 78.962 26.8518 78.637 27.3984C78.311 27.9453 77.621 28.1863 76.5664 28.1211C75.1601 27.9128 73.7799 27.0796 72.4258 25.6211Z" fill="#38373F"/>
<path d="M15.8906 18.1406C20.3828 19 23.3646 20.0352 24.8359 21.2461L20.1289 5.48438L15.8906 18.1406ZM16.2422 1.26562C18.5339 1.26562 20.8255 1.26562 23.1172 1.26562C25.4089 1.26562 27.7005 1.26562 29.9922 1.26562C29.3932 1.26562 28.9049 1.52605 28.5273 2.04689C28.1497 2.56771 27.8958 3.20573 27.7656 3.96094C27.6484 4.71615 27.6615 5.45833 27.8047 6.1875L33.2344 24.3906C33.7422 25.9271 34.4193 27.0404 35.2656 27.7305C36.112 28.4206 36.8216 28.8438 37.3945 29H31.9844C30.7214 29 29.5299 28.7135 28.4102 28.1406C27.2904 27.5547 26.5156 26.6497 26.0859 25.4258C25.6953 24.332 24.9271 23.362 23.7812 22.5156C22.6354 21.6693 21.3138 20.9857 19.8164 20.4648C18.332 19.944 16.8737 19.612 15.4414 19.4688L13.7031 24.6055C13.3776 25.6211 13.319 26.5456 13.5273 27.3789C13.7487 28.2122 14.2174 28.7526 14.9336 29C14.2174 29 13.4948 29 12.7656 29C11.3333 29 9.89451 29 8.4492 29C9.11326 28.8438 9.77732 28.3685 10.4414 27.5742C11.1055 26.7799 11.6263 25.849 12.0039 24.7812L13.8203 19.3711C11.6979 19.3581 9.96613 19.9635 8.62498 21.1875C7.28383 22.3984 6.3854 23.9154 5.92967 25.7383C5.47394 27.5482 5.50649 29.332 6.02732 31.0898C6.39191 32.2096 7.02993 33.1016 7.94139 33.7656C8.83982 34.4427 9.80337 34.8398 10.832 34.957C11.8607 35.0872 12.7526 34.8919 13.5078 34.3711C12.987 35.7643 12.3034 36.7604 11.457 37.3594C10.6107 37.9714 9.47784 38.2773 8.05857 38.2773C6.53514 38.2773 5.27212 37.9388 4.26951 37.2617C3.26691 36.5977 2.49217 35.7318 1.94529 34.6641C1.3854 33.6094 1.03383 32.4766 0.890607 31.2656C0.63019 29.0781 0.981753 26.9297 1.94529 24.8203C2.89581 22.6979 4.41925 20.9792 6.5156 19.6641C8.59894 18.3359 11.1901 17.776 14.2891 17.9844L18.0977 6.6172C18.319 5.86199 18.3971 5.07422 18.332 4.25392C18.2669 3.4336 18.0586 2.73048 17.707 2.14454C17.3685 1.5586 16.8802 1.26562 16.2422 1.26562ZM36.2148 12.3594L46.918 10.3477V12.4961C48.4154 11.0638 49.9779 10.3607 51.6055 10.3867C53.168 10.3737 54.5156 10.7708 55.6484 11.5781C56.7812 12.3724 57.3867 13.4271 57.4648 14.7422C57.4648 15.7969 56.9635 16.6497 55.9609 17.3008C54.9714 17.9518 53.5586 18.1016 51.7227 17.75C52.2956 17.138 52.6602 16.3633 52.8164 15.4258C52.9857 14.4883 52.9206 13.6484 52.6211 12.9062C52.3216 12.1641 51.7617 11.7799 50.9414 11.7539C50.0299 11.806 49.2747 12.2682 48.6758 13.1406C48.0898 14 47.6471 15.0612 47.3477 16.3242C47.0612 17.5742 46.918 18.7721 46.918 19.918C46.918 20.5169 46.918 20.9922 46.918 21.3438C46.918 21.6953 46.918 22.0469 46.918 22.3984C46.918 22.75 46.918 23.2057 46.918 23.7656C46.918 25.25 47.2565 26.4935 47.9336 27.4961C48.6237 28.4857 49.6328 28.9805 50.9609 28.9805H36.8594C37.7448 28.9805 38.3958 28.7526 38.8125 28.2969C39.2422 27.8411 39.5221 27.2227 39.6523 26.4414C39.7826 25.6471 39.8477 24.7552 39.8477 23.7656V17.75C39.8477 16.7604 39.724 15.8555 39.4766 15.0352C39.2422 14.2148 38.8581 13.5638 38.3242 13.082C37.8034 12.6003 37.1003 12.3594 36.2148 12.3594Z" fill="#38373F"/>
<path d="M114.445 24.4883L114.211 24.1953L117.258 21.4414C118.625 20.0091 119.367 18.7396 119.484 17.6328C119.602 16.513 119.315 15.5885 118.625 14.8594C117.674 13.9089 116.555 13.5768 115.266 13.8633C113.99 14.1497 112.902 14.8984 112.004 16.1094C112.876 15.9792 113.69 16.2331 114.445 16.8711C115.214 17.4961 115.663 18.3099 115.793 19.3125C115.923 20.3151 115.48 21.3047 114.465 22.2812C114.126 22.5938 113.781 22.9062 113.43 23.2188L107.98 16.2656L105.891 13.5703C106.763 13.1016 107.616 12.5612 108.449 11.9492C109.296 11.3372 110.005 10.6341 110.578 9.83986C111.138 9.04559 111.418 8.13414 111.418 7.10549C111.418 6.11591 111.151 5.18492 110.617 4.31252C109.263 2.37242 107.349 1.37632 104.875 1.32424C103.221 1.24611 101.626 1.49351 100.09 2.06643C98.8268 2.52216 97.8698 3.29038 97.2188 4.37111C96.5547 5.56903 96.2747 6.78649 96.3789 8.02347C96.4831 9.24743 96.8216 10.4323 97.3945 11.5781C97.9805 12.7109 98.6445 13.7461 99.3867 14.6836C97.2122 15.556 95.6497 16.7669 94.6992 18.3164C93.7617 19.8529 93.4036 21.4609 93.625 23.1406C94.0156 25.6927 95.1549 27.5286 97.043 28.6484C98.931 29.7552 101.112 30.2305 103.586 30.0742C106.073 29.918 108.384 29.2083 110.52 27.9453C111.118 28.375 111.75 28.6549 112.414 28.7852C113.091 28.9023 113.814 28.9609 114.582 28.9609H120.227C118.859 28.5573 117.753 27.9714 116.906 27.2031C116.06 26.4349 115.24 25.5299 114.445 24.4883ZM104.875 12.2812L102.355 9.03908C101.743 8.25783 101.333 7.39195 101.125 6.44143C100.943 5.63413 101.04 4.86591 101.418 4.13674C101.783 3.5508 102.284 3.15367 102.922 2.94533C103.56 2.737 104.211 2.63283 104.875 2.63283C106.216 2.63283 107.342 3.03648 108.254 3.84377C109.152 4.65106 109.602 5.69273 109.602 6.96877C109.602 8.07554 109.198 9.03257 108.391 9.83986C107.57 10.6341 106.678 11.2917 105.715 11.8125C105.454 11.9818 105.174 12.138 104.875 12.2812ZM109.094 26.8711C107.701 27.8997 106.164 28.2253 104.484 27.8477C102.805 27.4701 101.353 26.5586 100.129 25.1133C99.0612 23.7852 98.4753 22.2682 98.3711 20.5625C98.2669 18.8438 98.957 17.3333 100.441 16.0312C101.796 17.6068 103.072 19.2279 104.27 20.8945C105.728 22.9909 107.336 24.9831 109.094 26.8711Z" fill="#38373F"/>
</g>
<defs>
<clipPath id="clip0_405_1074">
<rect width="238" height="39" fill="white"/>
</clipPath>
</defs>
</svg>
