<svg width="25" height="25" viewBox="0 0 25 25" fill="none" xmlns="http://www.w3.org/2000/svg">
<g clip-path="url(#clip0_489_672)">
<path d="M13.6868 2.56678L13.6868 2.56675L13.6833 2.56331C10.6561 -0.422955 5.66953 -0.423272 2.6423 2.64395C-0.423233 5.71038 -0.422955 10.6579 2.64314 13.724L2.64311 13.7241L2.64655 13.7274C4.15845 15.1984 6.16059 15.975 8.16406 15.975C9.78045 15.975 11.3972 15.4681 12.7421 14.4871L14.3866 16.1315C14.2316 16.5161 14.1422 16.9487 14.1422 17.3828C14.1422 18.2579 14.4923 19.0888 15.1041 19.7006L19.1275 23.724C19.7825 24.3791 20.6153 24.6859 21.4453 24.6859C22.2753 24.6859 23.1081 24.3791 23.7631 23.724L23.7632 23.7241L23.7674 23.7196C24.9927 22.4506 24.9929 20.3573 23.724 19.0884L19.7006 15.065C19.0888 14.4532 18.2579 14.1031 17.3828 14.1031C16.9487 14.1031 16.5161 14.1925 16.1315 14.3475L14.4862 12.7021C16.6991 9.64612 16.4309 5.35069 13.6868 2.56678ZM4.34905 11.94C2.25917 9.85011 2.25917 6.43891 4.34905 4.34903C5.41408 3.284 6.76943 2.77185 8.125 2.77185C9.48311 2.77185 10.8767 3.28572 11.94 4.34903C14.0299 6.43891 14.0299 9.85011 11.94 11.94C9.85013 14.0299 6.43893 14.0299 4.34905 11.94ZM21.9733 20.8276C22.2739 21.1606 22.274 21.6512 21.9738 21.9843C21.6723 22.28 21.156 22.3016 20.8334 21.9791L16.81 17.9556C16.6368 17.7825 16.5609 17.5964 16.5609 17.3828C16.5609 17.1692 16.6368 16.9831 16.81 16.81C16.9831 16.6368 17.1692 16.5609 17.3828 16.5609C17.5964 16.5609 17.7825 16.6368 17.9556 16.81L21.9733 20.8276Z" fill="black" stroke="black" stroke-width="0.7"/>
</g>
<defs>
<clipPath id="clip0_489_672">
<rect width="25" height="25" fill="white"/>
</clipPath>
</defs>
</svg>
