<svg width="30" height="30" viewBox="0 0 30 30" fill="none" xmlns="http://www.w3.org/2000/svg">
<path d="M6.19985 23.781C7.64663 20.9434 10.5964 19 14 19C17.3774 19 20.3078 20.9135 21.7664 23.7154M16.9166 12.0555C16.9166 13.7431 15.5486 15.1111 13.8611 15.1111C12.1736 15.1111 10.8055 13.7431 10.8055 12.0555C10.8055 10.368 12.1736 9 13.8611 9C15.5486 9 16.9166 10.368 16.9166 12.0555ZM14 26.5C7.09644 26.5 1.5 20.9035 1.5 14C1.5 7.09644 7.09644 1.5 14 1.5C20.9035 1.5 26.5 7.09644 26.5 14C26.5 20.9035 20.9035 26.5 14 26.5Z" stroke="#717171" stroke-width="3" stroke-linecap="round" stroke-linejoin="round"/>
</svg>
