<svg width="29" height="29" viewBox="0 0 29 29" fill="none" xmlns="http://www.w3.org/2000/svg">
<path d="M6.69985 24.281C8.14663 21.4434 11.0964 19.5 14.5 19.5C17.8774 19.5 20.8078 21.4135 22.2664 24.2154M17.4166 12.5555C17.4166 14.2431 16.0486 15.6111 14.3611 15.6111C12.6736 15.6111 11.3055 14.2431 11.3055 12.5555C11.3055 10.868 12.6736 9.5 14.3611 9.5C16.0486 9.5 17.4166 10.868 17.4166 12.5555ZM14.5 27C7.59644 27 2 21.4035 2 14.5C2 7.59644 7.59644 2 14.5 2C21.4035 2 27 7.59644 27 14.5C27 21.4035 21.4035 27 14.5 27Z" stroke="#717171" stroke-width="3" stroke-linecap="round" stroke-linejoin="round"/>
</svg>
