<svg width="100" height="100" viewBox="0 0 100 100" fill="none" xmlns="http://www.w3.org/2000/svg">
<path d="M54.0781 18.3594H45.9219C44.2344 18.3594 42.6875 19.7656 42.6875 21.5937C42.6875 23.4219 44.0938 24.8281 45.9219 24.8281H54.0781C55.7656 24.8281 57.3125 23.4219 57.3125 21.5937C57.3125 19.7656 55.7656 18.3594 54.0781 18.3594Z" fill="black"/>
<path d="M67.4375 7.53125H32.5625C27.7813 7.53125 23.7031 11.4688 23.7031 16.3906V83.8906C23.7031 88.6719 27.6406 92.75 32.5625 92.75H67.5781C72.3594 92.75 76.4375 88.8125 76.4375 83.8906V16.25C76.2969 11.4687 72.3594 7.53125 67.4375 7.53125ZM69.9688 83.75C69.9688 85.1563 68.8438 86.2812 67.4375 86.2812H32.5625C31.1563 86.2812 30.0312 85.1563 30.0312 83.75V16.25C30.0312 14.8437 31.1563 13.7187 32.5625 13.7187H67.5781C68.9844 13.7187 70.1094 14.8437 70.1094 16.25V83.75H69.9688Z" fill="black"/>
<path d="M52.9531 79.9531C52.8125 79.8125 52.8125 79.6718 52.6719 79.5312C52.5312 79.3906 52.3906 79.25 52.25 79.1093C51.5469 78.4062 50.4219 77.9843 49.4375 78.2656C49.2969 78.2656 49.0156 78.4062 48.875 78.4062C48.7344 78.4062 48.4531 78.5468 48.3125 78.6875C48.1719 78.8281 48.0313 78.9687 47.8906 79.1093C47.75 79.25 47.6094 79.3906 47.4688 79.5312C47.3281 79.6718 47.3281 79.9531 47.1875 80.0937C47.0469 80.2343 47.0469 80.5156 47.0469 80.6562C47.0469 80.7968 47.0469 81.0781 47.0469 81.2187C47.0469 82.0625 47.3281 82.9062 48.0313 83.4687C48.1719 83.6093 48.3125 83.75 48.4531 83.8906C48.5937 84.0312 48.875 84.1718 49.0156 84.1718C49.1562 84.1718 49.4375 84.3125 49.5781 84.3125C49.7188 84.3125 50 84.3125 50.1406 84.3125C50.9844 84.3125 51.8281 84.0312 52.3906 83.3281C52.5312 83.1875 52.6719 83.0468 52.8125 82.9062C52.9531 82.7656 52.9531 82.4843 53.0937 82.3437C53.2344 82.2031 53.2344 81.9218 53.2344 81.7812C53.2344 81.5 53.2344 81.3593 53.2344 81.2187C53.2344 80.9375 53.2344 80.7968 53.2344 80.6562C53.0937 80.375 52.9531 80.2343 52.9531 79.9531Z" fill="black"/>
</svg>
