<svg width="100" height="100" viewBox="0 0 100 100" fill="none" xmlns="http://www.w3.org/2000/svg">
<path d="M85.7188 30.0312L64.9062 25.25C64.9062 24.8281 65.0469 24.5469 65.0469 24.125C65.0469 17.0938 59.4219 11.4688 52.5312 11.4688C45.5 11.4688 39.875 17.0938 39.875 24.125C39.875 25.5313 40.2969 27.3594 41.1406 29.4688L37.0625 30.3125L18.6406 25.1094C15.9688 24.4063 13.1562 24.8281 10.9062 26.5156C8.65625 28.2031 7.39062 30.7344 7.39062 33.5469V73.7656C7.39062 77.7031 10.0625 81.2188 13.8594 82.2031L36.0781 88.5313C36.0781 88.5313 36.0781 88.5313 36.2188 88.5313C36.5 88.5313 36.7812 88.6719 37.0625 88.6719C37.3437 88.6719 37.4844 88.6719 37.7656 88.6719L63.3594 83.3281L81.9219 87.6875C82.625 87.8281 83.1875 87.9688 83.8906 87.9688C85.8594 87.9688 87.8281 87.2656 89.375 86C91.4844 84.3125 92.75 81.7813 92.75 79.1094V38.6094C92.6094 34.5313 89.7969 31.0156 85.7188 30.0312ZM52.3906 17.7969C55.9062 17.7969 58.5781 20.6094 58.5781 24.125C58.5781 25.6719 56.6094 30.3125 52.25 37.0625C47.8906 30.3125 45.9219 25.8125 45.9219 24.125C46.0625 20.6094 48.875 17.7969 52.3906 17.7969ZM43.8125 35.2344C45.3594 38.0469 47.1875 40.8594 48.875 43.25C49.5781 44.375 50.9844 45.0781 52.25 45.0781C53.6562 45.0781 54.9219 44.375 55.625 43.25C57.0312 41.1406 58.5781 38.8906 59.9844 36.5V77.2813L40.1562 81.5V36.0781L43.8125 35.2344ZM13.8594 73.625V33.5469C13.8594 32.7031 14.2813 32 14.8438 31.5781C15.4063 31.1563 16.25 31.0156 16.9531 31.1563L33.8281 35.9375V81.2188L15.5469 76.0156C14.5625 75.7344 13.8594 74.75 13.8594 73.625ZM86.2812 78.8281C86.2812 79.8125 85.7187 80.5156 85.2969 80.7969C85.0156 81.0781 84.1719 81.5 83.1875 81.2188L66.3125 77.2813V32L84.3125 36.2188C85.4375 36.5 86.2812 37.4844 86.2812 38.6094V78.8281V78.8281Z" fill="black"/>
<path d="M52.9531 26.7969C53.0937 26.7969 53.375 26.6563 53.5156 26.6563C53.6563 26.6563 53.9375 26.5156 54.0781 26.375C54.2188 26.2344 54.3594 26.0937 54.5 25.9531C55.0625 25.3906 55.4844 24.5469 55.4844 23.7031C55.4844 22.8594 55.2031 22.0156 54.5 21.4531C54.3594 21.3125 54.2188 21.1719 54.0781 21.0312C53.9375 20.8906 53.6563 20.75 53.5156 20.75C53.375 20.6094 53.0937 20.6094 52.9531 20.6094C51.9687 20.4688 50.8437 20.75 50.1406 21.4531C49.5781 22.0156 49.1562 22.8594 49.1562 23.7031C49.1562 24.5469 49.4375 25.3906 50.1406 25.9531C50.7031 26.5156 51.5469 26.9375 52.3906 26.9375C52.5313 26.7969 52.8125 26.7969 52.9531 26.7969Z" fill="black"/>
</svg>
