<svg width="100" height="100" viewBox="0 0 100 100" fill="none" xmlns="http://www.w3.org/2000/svg">
<path fill-rule="evenodd" clip-rule="evenodd" d="M10.821 35.5036C9.62747 45.8506 9.68067 57.7842 11.3414 68.0893C12.2604 73.7913 17.2478 78.1626 23.4042 78.662L29.8382 79.1839C43.2541 80.272 56.7459 80.272 70.1617 79.1839L76.5958 78.662C82.7522 78.1626 87.7396 73.7913 88.6585 68.0893C90.3193 57.7842 90.3726 45.8513 89.1791 35.5042C89.0248 34.3046 88.8513 33.1067 88.6585 31.9107C87.7396 26.2087 82.7522 21.8374 76.5958 21.338L70.1617 20.8161C56.7458 19.728 43.2541 19.728 29.8382 20.8161L23.4042 21.338C17.2478 21.8374 12.2604 26.2087 11.3414 31.9107C11.1487 33.1065 10.9752 34.3042 10.821 35.5036ZM30.3916 26.7566C43.4393 25.6983 56.5607 25.6983 69.6083 26.7566L76.0423 27.2784C79.256 27.5391 81.8594 29.821 82.3391 32.7974C82.3889 33.1065 82.4374 33.4158 82.4845 33.7251L58.793 46.0064C53.3245 48.8411 46.6751 48.8411 41.2066 46.0064L17.5154 33.7253C17.5625 33.4159 17.611 33.1066 17.6608 32.7974C18.1405 29.8209 20.7439 27.5391 23.9576 27.2784L30.3916 26.7566ZM83.2665 40.141C84.0929 49.1558 83.7837 58.2386 82.3391 67.2026C81.8594 70.1791 79.256 72.4609 76.0423 72.7216L69.6083 73.2434C56.5607 74.3017 43.4393 74.3017 30.3917 73.2434L23.9576 72.7216C20.7439 72.4609 18.1405 70.179 17.6608 67.2026C16.2162 58.2387 15.9071 49.1559 16.7334 40.1412L38.1032 51.2188C45.5017 55.0541 54.4979 55.0541 61.8965 51.2188L83.2665 40.141Z" fill="black"/>
</svg>
